# xmcd
#
# Track frame offsets:
#	150
#	12395
#	26591
#	37343
#	48210
#	61144
#	72870
#	83846
#	93307
#	102357
#	112772
#	123971
#	134276
#	144872
#	157141
#	167732
#	179110
#	187540
#
# Disc length: 2650
#
# Revision: 1
# Processed by: cddbd v1.5.1PL0 Copyright (c) Steve Scherf et al.
# Submitted via: dBpowerAMP V4.0
# Normalized: r0:TDELIM( - )
#
DISCID=eb0a5812
DTITLE=Various Artist - The Best of Country cd3
DYEAR=1900
DGENRE=
TTITLE0=Johnny Cash - I walk the line
TTITLE1=George Jones - A good year for the roses
TTITLE2=Roger Miller - King of the Road
TTITLE3=Dolly Parton - It wasn't God who made honkytonk angels
TTITLE4=Charlie Rich - I take it on home
TTITLE5=Merle Haggard - Carolyn
TTITLE6=Don Williams - Spend some time with me
TTITLE7=Merle Travis - 16 Tons
TTITLE8=Frankie Laine - Rawhide
TTITLE9=Carl Belew - Am I that easy to forget
TTITLE10=Donna Fargo - Wishful thinking
TTITLE11=Dave Dudley - Six days on the road
TTITLE12=Freddy Fender - A man can cry
TTITLE13=George Jones - Take me
TTITLE14=Faron Young - If you ain't lovin'
TTITLE15=Flying Burrito Brothers - My abandonned heart
TTITLE16=Sandy Posey - Born a woman
TTITLE17=Willie Nelson - Suffering in silence
EXTD=
EXTT0=
EXTT1=
EXTT2=
EXTT3=
EXTT4=
EXTT5=
EXTT6=
EXTT7=
EXTT8=
EXTT9=
EXTT10=
EXTT11=
EXTT12=
EXTT13=
EXTT14=
EXTT15=
EXTT16=
EXTT17=
PLAYORDER=
